<?xml version="1.0" encoding="UTF-8" standalone="no"?><!-- Generator: Gravit.io --><svg xmlns="http://www.w3.org/2000/svg" xmlns:xlink="http://www.w3.org/1999/xlink" style="isolation:isolate" viewBox="0 0 1028 1028" width="1028pt" height="1028pt"><defs><clipPath id="_clipPath_Y7tqoj0RicXhtvEGhSx59lyvvNJ5XSmL"><rect width="1028" height="1028"/></clipPath></defs><g clip-path="url(#_clipPath_Y7tqoj0RicXhtvEGhSx59lyvvNJ5XSmL)"><style>
    path {
        fill: #333;
    }

    @media (prefers-color-scheme: dark) {
        path {
            fill: #fff !important;
        }
    }
</style><path d=" M 745.049 354.5 C 745.049 321.937 718.612 295.5 686.049 295.5 C 653.486 295.5 627.049 321.937 627.049 354.5 C 627.049 387.063 653.486 413.5 686.049 413.5 C 718.612 413.5 745.049 387.063 745.049 354.5 L 745.049 354.5 L 745.049 354.5 L 745.049 354.5 Z  M 414.438 711.037 C 405.118 717.374 395.946 723.336 386.971 728.868 L 293.312 629.242 C 298.112 622.485 303.182 615.628 308.492 608.693 L 217.049 625.902 L 351.378 484.711 L 421.164 482.756 C 506.829 397.517 603.268 318.719 662.299 282.358 C 755.249 225.103 808.013 204.453 823.625 221.058 C 839.237 237.662 817.697 291.521 755.958 381.984 C 716.944 439.149 632.709 530.029 542.61 609.759 L 536.175 681.283 L 386.965 806.645 L 410.221 714.708 L 414.438 711.037 L 414.438 711.037 L 414.438 711.037 L 414.438 711.037 Z  M 201.047 810.575 Q 188.009 796.597 283.622 665.142 L 351.378 737.295 Q 217.257 824.532 201.047 810.575 Z " fill-rule="evenodd" fill="rgb(255,255,255)"/></g></svg>