<svg height="100%" width="100%" id="svg" viewBox="0 0 1440 400" xmlns="http://www.w3.org/2000/svg" class="transition duration-300 ease-in-out delay-150"><path d="M 0,400 C 0,400 0,80 0,80 C 75.23119203023018,74.03778770182069 150.46238406046035,68.07557540364137 216,64 C 281.53761593953965,59.924424596358634 337.3816557883888,57.73548608725523 416,59 C 494.6183442116112,60.26451391274477 596.0109927859843,64.98248024733769 652,73 C 707.9890072140157,81.01751975266231 718.5743730676744,92.33459292339403 784,99 C 849.4256269323256,105.66540707660597 969.6915149433182,107.67914805908622 1060,99 C 1150.3084850566818,90.32085194091378 1210.659567159052,70.94881484026108 1269,66 C 1327.340432840948,61.05118515973892 1383.670216420474,70.52559257986945 1440,80 C 1440,80 1440,400 1440,400 Z" stroke="none" stroke-width="0" fill="#6d28d944" class="transition-all duration-300 ease-in-out delay-150"></path><path d="M 0,400 C 0,400 0,160 0,160 C 88.74132600480934,147.2992098935074 177.48265200961868,134.5984197870148 230,130 C 282.5173479903813,125.40158021298522 298.8107179663346,128.9055307454483 373,135 C 447.1892820336654,141.0944692545517 579.2744761250428,149.77945723119203 651,158 C 722.7255238749572,166.22054276880797 734.0913775334938,173.9766403297836 786,169 C 837.9086224665062,164.0233596702164 930.3600137409826,146.31398144967366 1003,146 C 1075.6399862590174,145.68601855032634 1128.4685675025762,162.76743387152183 1198,168 C 1267.5314324974238,173.23256612847817 1353.765716248712,166.6162830642391 1440,160 C 1440,160 1440,400 1440,400 Z" stroke="none" stroke-width="0" fill="#6d28d966" class="transition-all duration-300 ease-in-out delay-150"></path><path d="M 0,400 C 0,400 0,240 0,240 C 44.3448986602542,243.24493301271042 88.6897973205084,246.4898660254208 169,245 C 249.3102026794916,243.5101339745792 365.58570937822054,237.28546891102715 433,237 C 500.41429062177946,236.71453108897285 518.9673651666094,242.3682583304706 587,245 C 655.0326348333906,247.6317416695294 772.5448299553418,247.24149776709038 855,254 C 937.4551700446582,260.7585022329096 984.8533150120234,274.665750601168 1051,266 C 1117.1466849879766,257.334249398832 1202.0419099965645,226.0954998282377 1270,218 C 1337.9580900034355,209.9045001717623 1388.9790450017176,224.95225008588113 1440,240 C 1440,240 1440,400 1440,400 Z" stroke="none" stroke-width="0" fill="#6d28d988" class="transition-all duration-300 ease-in-out delay-150"></path><path d="M 0,400 C 0,400 0,320 0,320 C 61.34730333218823,309.81174854002063 122.69460666437647,299.6234970800412 192,295 C 261.30539333562353,290.3765029199588 338.5688766746823,291.31776021985576 401,295 C 463.4311233253177,298.68223978014424 511.0298866368945,305.1054620405359 580,307 C 648.9701133631055,308.8945379594641 739.3115767777398,306.26039161800077 815,316 C 890.6884232222602,325.73960838199923 951.7238062521469,347.85297148746133 1012,341 C 1072.276193747853,334.14702851253867 1131.7931982136724,298.3277224321539 1203,290 C 1274.2068017863276,281.6722775678461 1357.1034008931638,300.83613878392305 1440,320 C 1440,320 1440,400 1440,400 Z" stroke="none" stroke-width="0" fill="#6d28d9ff" class="transition-all duration-300 ease-in-out delay-150"></path></svg>