<svg id="wave" style="transform:rotate(0deg); transition: 0.3s" viewBox="0 0 1440 180" version="1.1" xmlns="http://www.w3.org/2000/svg"><defs><linearGradient id="sw-gradient-0" x1="0" x2="0" y1="1" y2="0"><stop stop-color="rgba(109, 40, 217, 1)" offset="0%"></stop><stop stop-color="rgba(109, 40, 217, 0.66)" offset="100%"></stop></linearGradient></defs><path style="transform:translate(0, 0px); opacity:1" fill="url(#sw-gradient-0)" d="M0,0L24,3C48,6,96,12,144,33C192,54,240,90,288,108C336,126,384,126,432,105C480,84,528,42,576,42C624,42,672,84,720,99C768,114,816,102,864,108C912,114,960,138,1008,150C1056,162,1104,162,1152,150C1200,138,1248,114,1296,111C1344,108,1392,126,1440,132C1488,138,1536,132,1584,126C1632,120,1680,114,1728,105C1776,96,1824,84,1872,66C1920,48,1968,24,2016,33C2064,42,2112,84,2160,93C2208,102,2256,78,2304,81C2352,84,2400,114,2448,120C2496,126,2544,108,2592,111C2640,114,2688,138,2736,144C2784,150,2832,138,2880,135C2928,132,2976,138,3024,141C3072,144,3120,144,3168,120C3216,96,3264,48,3312,48C3360,48,3408,96,3432,120L3456,144L3456,180L3432,180C3408,180,3360,180,3312,180C3264,180,3216,180,3168,180C3120,180,3072,180,3024,180C2976,180,2928,180,2880,180C2832,180,2784,180,2736,180C2688,180,2640,180,2592,180C2544,180,2496,180,2448,180C2400,180,2352,180,2304,180C2256,180,2208,180,2160,180C2112,180,2064,180,2016,180C1968,180,1920,180,1872,180C1824,180,1776,180,1728,180C1680,180,1632,180,1584,180C1536,180,1488,180,1440,180C1392,180,1344,180,1296,180C1248,180,1200,180,1152,180C1104,180,1056,180,1008,180C960,180,912,180,864,180C816,180,768,180,720,180C672,180,624,180,576,180C528,180,480,180,432,180C384,180,336,180,288,180C240,180,192,180,144,180C96,180,48,180,24,180L0,180Z"></path><defs><linearGradient id="sw-gradient-1" x1="0" x2="0" y1="1" y2="0"><stop stop-color="rgba(109, 40, 217, 1)" offset="0%"></stop><stop stop-color="rgba(109, 40, 217, 0.82)" offset="100%"></stop></linearGradient></defs><path style="transform:translate(0, 50px); opacity:0.9" fill="url(#sw-gradient-1)" d="M0,54L24,48C48,42,96,30,144,24C192,18,240,18,288,21C336,24,384,30,432,45C480,60,528,84,576,102C624,120,672,132,720,114C768,96,816,48,864,36C912,24,960,48,1008,48C1056,48,1104,24,1152,18C1200,12,1248,24,1296,27C1344,30,1392,24,1440,39C1488,54,1536,90,1584,87C1632,84,1680,42,1728,48C1776,54,1824,108,1872,108C1920,108,1968,54,2016,30C2064,6,2112,12,2160,33C2208,54,2256,90,2304,96C2352,102,2400,78,2448,75C2496,72,2544,90,2592,105C2640,120,2688,132,2736,129C2784,126,2832,108,2880,111C2928,114,2976,138,3024,126C3072,114,3120,66,3168,42C3216,18,3264,18,3312,21C3360,24,3408,30,3432,33L3456,36L3456,180L3432,180C3408,180,3360,180,3312,180C3264,180,3216,180,3168,180C3120,180,3072,180,3024,180C2976,180,2928,180,2880,180C2832,180,2784,180,2736,180C2688,180,2640,180,2592,180C2544,180,2496,180,2448,180C2400,180,2352,180,2304,180C2256,180,2208,180,2160,180C2112,180,2064,180,2016,180C1968,180,1920,180,1872,180C1824,180,1776,180,1728,180C1680,180,1632,180,1584,180C1536,180,1488,180,1440,180C1392,180,1344,180,1296,180C1248,180,1200,180,1152,180C1104,180,1056,180,1008,180C960,180,912,180,864,180C816,180,768,180,720,180C672,180,624,180,576,180C528,180,480,180,432,180C384,180,336,180,288,180C240,180,192,180,144,180C96,180,48,180,24,180L0,180Z"></path></svg>