<?xml version="1.0" encoding="UTF-8" standalone="no"?><!-- Generator: Gravit.io --><svg xmlns="http://www.w3.org/2000/svg" xmlns:xlink="http://www.w3.org/1999/xlink" style="isolation:isolate" viewBox="0 0 1028 1028" width="1028pt" height="1028pt"><defs><clipPath id="_clipPath_mILRfNw0eVCSltlf7vejdJO6ISJ0agmo"><rect width="1028" height="1028"/></clipPath></defs><g clip-path="url(#_clipPath_mILRfNw0eVCSltlf7vejdJO6ISJ0agmo)"><path d=" M 891.592 227.161 C 891.592 173.945 848.387 130.74 795.171 130.74 C 741.955 130.74 698.75 173.945 698.75 227.161 C 698.75 280.377 741.955 323.581 795.171 323.581 C 848.387 323.581 891.592 280.377 891.592 227.161 L 891.592 227.161 L 891.592 227.161 L 891.592 227.161 Z  M 351.291 809.831 C 336.06 820.187 321.07 829.931 319.172 831.101 C 312.125 835.445 301.799 834.074 296.129 828.042 L 163.615 687.086 C 157.945 681.055 156.856 671.21 161.185 665.115 C 161.185 665.115 169.471 653.909 169.471 653.909 C 174.26 647.654 171.543 643.818 163.408 645.35 L 43.449 667.925 C 35.313 669.456 33.341 665.83 39.047 659.832 L 237.896 450.825 C 243.602 444.827 254.954 439.77 263.229 439.538 L 347.289 437.183 C 355.564 436.951 367.047 432.022 372.916 426.183 C 502.281 297.461 659.886 168.686 756.358 109.263 C 908.261 15.694 994.491 -18.054 1020.005 9.083 C 1045.518 36.218 1010.317 124.237 909.42 272.076 C 845.661 365.498 708 514.019 571.989 634.377 C 565.789 639.863 560.154 651.012 559.412 659.257 L 551.584 746.266 C 550.842 754.511 545.093 765.529 538.755 770.855 L 317.878 956.429 C 311.539 961.755 308.041 959.562 310.072 951.536 L 344.399 815.83 L 351.291 809.831 L 351.291 809.831 L 351.291 809.831 L 351.291 809.831 Z  M 2.557 972.501 Q -5.252 936.159 142.18 733.46 C 147.05 726.765 155.604 726.229 161.271 732.264 L 251.465 828.31 C 257.132 834.345 256.151 842.989 249.276 847.6 Q 29.048 995.31 2.557 972.501 Z " fill-rule="evenodd"/></g></svg>